<?xml version="1.0" encoding="UTF-8" standalone="no"?><!-- Generator: Gravit.io --><svg xmlns="http://www.w3.org/2000/svg" xmlns:xlink="http://www.w3.org/1999/xlink" style="isolation:isolate" viewBox="0 0 600 600" width="600pt" height="600pt"><defs><clipPath id="_clipPath_XLWWJGvPM4v2uZszqrZOx0DUr9BcaIx4"><rect width="600" height="600"/></clipPath></defs><g clip-path="url(#_clipPath_XLWWJGvPM4v2uZszqrZOx0DUr9BcaIx4)"><rect width="600" height="600" style="fill:rgb(0,0,0)" fill-opacity="0"/><path d=" M 71.752 116.502 L 139.752 116.502 L 139.752 513 L 71.752 454 L 71.752 116.502 Z " fill="rgb(0,0,0)"/><path d=" M 322.46 505.763 L 322.46 542.217 L 249.552 542.217 L 249.552 505.763 L 249.552 392.188 C 248.904 385.667 248.58 379.146 248.539 372.625 C 248.499 367.075 248.823 361.486 249.552 355.977 C 250.321 350.064 251.86 344.271 254.129 338.722 C 257.247 330.905 262.392 324.019 269.034 318.754 C 277.014 312.516 286.897 309.195 297.063 309.316 C 301.964 309.397 306.866 310.167 311.564 311.665 C 315.412 312.921 319.138 314.541 322.703 316.485 C 328.859 319.969 334.652 324.141 339.917 328.92 C 340.363 329.325 340.768 329.73 341.213 330.176 L 509.955 499.606 L 535.675 525.448 L 484.032 576.889 L 458.312 551.047 L 322.46 414.668 L 322.46 505.763 Z " fill="rgb(227,227,227)"/><path d=" M 74.37 188.815 L 74.37 115.907 L 366.002 115.907 C 366.083 115.907 366.164 115.907 366.245 115.907 C 373.981 115.948 381.718 116.596 389.373 117.77 C 396.502 118.864 403.55 120.565 410.436 122.793 C 423.437 126.965 435.508 133.526 446.079 142.154 C 456.125 150.417 464.266 160.746 469.977 172.411 C 475.486 183.793 478.402 196.268 478.402 208.946 C 478.402 221.583 475.486 234.099 469.937 245.481 C 464.226 257.146 456.003 267.475 445.917 275.657 C 435.305 284.244 423.154 290.724 410.111 294.775 C 403.226 296.962 396.178 298.542 389.009 299.595 C 381.353 300.689 373.657 301.215 365.962 301.215 L 246.716 301.215 C 243.192 301.256 239.709 301.458 236.226 301.863 C 233.674 302.147 231.163 302.592 228.651 303.2 C 227.558 303.483 226.464 303.848 225.37 304.253 C 225.37 304.334 225.411 304.374 225.451 304.455 C 226.181 307.088 227.193 309.6 228.489 311.989 C 230.271 315.473 232.337 318.794 234.646 321.994 C 237.36 325.68 240.276 329.244 243.395 332.606 L 407.965 497.216 L 433.766 522.977 L 382.204 574.54 L 356.443 548.738 L 191.387 383.682 C 191.063 383.399 190.78 383.115 190.496 382.791 C 185.23 377.121 180.289 371.166 175.752 364.929 C 171.297 358.853 167.327 352.453 163.885 345.811 C 160.401 339.168 157.606 332.242 155.5 325.032 C 153.272 317.538 152.098 309.762 152.017 301.904 C 151.895 291.049 154.366 280.355 159.186 270.634 C 164.371 260.508 171.985 251.84 181.383 245.44 C 185.879 242.362 190.699 239.729 195.721 237.583 C 200.744 235.436 205.969 233.694 211.315 232.398 C 216.824 231.061 222.414 230.049 228.044 229.441 C 234.079 228.753 240.114 228.388 246.149 228.307 C 246.271 228.307 246.392 228.307 246.514 228.307 L 366.002 228.307 C 366.043 228.307 366.083 228.307 366.124 228.307 C 370.296 228.307 374.468 228.023 378.599 227.416 C 381.92 226.97 385.161 226.201 388.361 225.188 C 392.573 223.892 396.542 221.786 399.985 219.031 C 401.849 217.492 403.388 215.589 404.441 213.442 C 405.129 212.024 405.494 210.526 405.494 208.946 C 405.494 207.366 405.129 205.787 404.441 204.328 C 403.307 202.101 401.768 200.116 399.823 198.536 C 396.34 195.701 392.33 193.514 388.037 192.177 C 384.837 191.124 381.556 190.314 378.234 189.828 C 374.144 189.18 370.012 188.856 365.881 188.815 L 74.37 188.815 Z " fill="rgb(0,0,0)"/><path d=" M 487.921 77.387 L 516.314 54.502 L 562.084 111.29 L 533.691 134.175 L 345.588 285.864 C 339.998 290.522 333.923 294.532 327.442 297.813 C 323.756 299.676 319.908 301.175 315.939 302.268 C 311.402 303.564 306.703 304.253 302.005 304.293 C 291.109 304.374 280.497 300.729 271.991 293.965 C 264.862 288.173 259.394 280.639 256.032 272.133 C 253.44 265.652 251.698 258.847 250.807 251.921 C 249.916 245.157 249.511 238.352 249.552 231.507 L 246.514 60.861 L 245.866 24.407 L 318.774 23.111 L 319.422 59.565 L 322.095 211.133 L 487.921 77.387 Z " fill="rgb(227,227,227)"/></g></svg>